<?xml version="1.0" encoding="UTF-8" standalone="no"?>
<svg
   id="Capa_1"
   data-name="Capa 1"
   viewBox="0 0 122 115"
   version="1.1"
   sodipodi:docname="favicon1.svg"
   width="122"
   height="115"
   inkscape:version="1.4.2 (f4327f4, 2025-05-13)"
   xmlns:inkscape="http://www.inkscape.org/namespaces/inkscape"
   xmlns:sodipodi="http://sodipodi.sourceforge.net/DTD/sodipodi-0.dtd"
   xmlns="http://www.w3.org/2000/svg"
   xmlns:svg="http://www.w3.org/2000/svg"
   xmlns:rdf="http://www.w3.org/1999/02/22-rdf-syntax-ns#"
   xmlns:cc="http://creativecommons.org/ns#"
   xmlns:dc="http://purl.org/dc/elements/1.1/">
  <sodipodi:namedview
     id="namedview22"
     pagecolor="#ffffff"
     bordercolor="#000000"
     borderopacity="0.25"
     inkscape:showpageshadow="2"
     inkscape:pageopacity="0.0"
     inkscape:pagecheckerboard="0"
     inkscape:deskcolor="#d1d1d1"
     showguides="true"
     inkscape:zoom="3.8684211"
     inkscape:cx="99.911565"
     inkscape:cy="96.034014"
     inkscape:window-width="1920"
     inkscape:window-height="974"
     inkscape:window-x="-11"
     inkscape:window-y="-11"
     inkscape:window-maximized="1"
     inkscape:current-layer="Capa_1" />
  <defs
     id="defs1">
    <style
       id="style1">.cls-1{fill:#3376ba;}.cls-2{fill:#1d8c5e;}.cls-3{fill:#fff;}</style>
  </defs>
  <title
     id="title1">index 4 imágenes con frase</title>
  <path
     class="cls-2"
     d="M 60.758319,113.72321 A 57.59943,54.930856 0 1 0 3.1503467,58.800499 57.59943,54.930856 0 0 0 60.758319,113.72321"
     id="path6"
     style="stroke-width:0.834436" />
  <polyline
     class="cls-3"
     points="48.67 34.14 48.67 39.23 68.52 39.23 68.52 19.01 63.41 19.01 63.41 34.14 48.67 34.14"
     id="polyline7"
     transform="matrix(0.85446418,0,0,0.81487697,-25.527269,-0.42162096)" />
  <polyline
     class="cls-3"
     points="52.45 41.88 71.54 41.88 71.54 22.23 77.21 22.23 77.21 47.36 52.45 47.36 52.45 41.88"
     id="polyline8"
     transform="matrix(0.85446418,0,0,0.81487697,-25.527269,-0.42162096)" />
  <polyline
     class="cls-3"
     points="80.24 25.63 80.24 50.2 56.23 50.2 56.23 55.29 85.34 55.29 85.34 25.63 80.24 25.63"
     id="polyline9"
     transform="matrix(0.85446418,0,0,0.81487697,-25.527269,-0.42162096)" />
  <polyline
     class="cls-3"
     points="59.07 57.95 59.07 63.25 93.27 63.25 93.27 28.84 87.99 28.84 87.99 57.95 59.07 57.95"
     id="polyline10"
     transform="matrix(0.85446418,0,0,0.81487697,-25.527269,-0.42162096)" />
  <polyline
     class="cls-3"
     points="64.44 125.22 69.52 125.22 69.52 105.39 49.31 105.39 49.31 110.49 64.44 110.49 64.44 125.22"
     id="polyline11"
     transform="matrix(0.85446418,0,0,0.81487697,-25.527269,-0.42162096)" />
  <polyline
     class="cls-3"
     points="72.18 121.46 72.18 102.36 52.52 102.36 52.52 96.69 77.65 96.69 77.65 121.46 72.18 121.46"
     id="polyline12"
     transform="matrix(0.85446418,0,0,0.81487697,-25.527269,-0.42162096)" />
  <polyline
     class="cls-3"
     points="55.92 93.67 80.5 93.67 80.5 117.67 85.6 117.67 85.6 88.57 55.92 88.57 55.92 93.67"
     id="polyline13"
     transform="matrix(0.85446418,0,0,0.81487697,-25.527269,-0.42162096)" />
  <polyline
     class="cls-3"
     points="88.24 114.83 93.54 114.83 93.54 80.62 59.14 80.62 59.14 85.92 88.24 85.92 88.24 114.83"
     id="polyline14"
     transform="matrix(0.85446418,0,0,0.81487697,-25.527269,-0.42162096)" />
  <polyline
     class="cls-3"
     points="156.78 109.64 156.78 104.52 136.94 104.52 136.94 124.75 142.05 124.75 142.05 109.64 156.78 109.64"
     id="polyline15"
     transform="matrix(0.85446418,0,0,0.81487697,-26.134314,-1.3039482)" />
  <a
     id="a22"
     transform="matrix(1.246059,0,0,1.1938249,-57.788731,-1.982887)">
    <polyline
       class="cls-3"
       points="153.01 101.89 133.91 101.89 133.91 121.53 128.24 121.53 128.24 96.4 153.01 96.4 153.01 101.89"
       id="polyline16"
       sodipodi:insensitive="true"
       transform="matrix(0.67911941,-0.01439958,0.01237499,0.67172337,24.089297,3.2308136)" />
  </a>
  <polyline
     class="cls-3"
     points="125.23 118.14 125.23 93.56 149.23 93.56 149.23 88.45 120.12 88.45 120.12 118.14 125.23 118.14"
     id="polyline17"
     transform="matrix(0.85446418,0,0,0.81487697,-26.4936,-1.3474456)" />
  <polyline
     class="cls-3"
     points="146.38 85.82 146.38 80.53 112.18 80.53 112.18 114.91 117.46 114.91 117.46 85.82 146.38 85.82"
     id="polyline18"
     transform="matrix(0.85446418,0,0,0.81487697,-25.527269,-0.42162096)" />
  <polyline
     class="cls-3"
     points="141.79 18.53 136.67 18.53 136.67 38.37 156.9 38.37 156.9 33.28 141.79 33.28 141.79 18.53"
     id="polyline19"
     transform="matrix(0.85446418,0,0,0.81487697,-25.527269,-0.42162096)" />
  <polyline
     class="cls-3"
     points="134.02 22.31 134.02 41.41 153.69 41.41 153.69 47.06 128.56 47.06 128.56 22.31 134.02 22.31"
     id="polyline20"
     transform="matrix(0.85446418,0,0,0.81487697,-25.527269,-0.42162096)" />
  <polyline
     class="cls-3"
     points="150.3 50.09 125.72 50.09 125.72 26.09 120.61 26.09 120.61 55.19 150.3 55.19 150.3 50.09"
     id="polyline21"
     transform="matrix(0.85446418,0,0,0.81487697,-25.527269,-0.42162096)" />
  <polyline
     class="cls-3"
     points="117.97 28.93 112.68 28.93 112.68 63.13 147.08 63.13 147.08 57.85 117.97 57.85 117.97 28.93"
     id="polyline22"
     transform="matrix(0.85446418,0,0,0.81487697,-25.527269,-0.42162096)"
     inkscape:label="polyline22" />
  <metadata
     id="metadata22">
    <rdf:RDF>
      <cc:Work
         rdf:about="">
        <dc:title>index 4 imágenes con frase</dc:title>
      </cc:Work>
    </rdf:RDF>
  </metadata>
</svg>
