<?xml version="1.0" encoding="UTF-8" standalone="no"?>
<svg
   id="Capa_1"
   data-name="Capa 1"
   viewBox="0 0 160 57"
   version="1.1"
   sodipodi:docname="logo1.svg"
   width="160"
   height="57"
   inkscape:version="1.4.2 (f4327f4, 2025-05-13)"
   xmlns:inkscape="http://www.inkscape.org/namespaces/inkscape"
   xmlns:sodipodi="http://sodipodi.sourceforge.net/DTD/sodipodi-0.dtd"
   xmlns="http://www.w3.org/2000/svg"
   xmlns:svg="http://www.w3.org/2000/svg"
   xmlns:rdf="http://www.w3.org/1999/02/22-rdf-syntax-ns#"
   xmlns:cc="http://creativecommons.org/ns#"
   xmlns:dc="http://purl.org/dc/elements/1.1/">
  <sodipodi:namedview
     id="namedview22"
     pagecolor="#ffffff"
     bordercolor="#000000"
     borderopacity="0.25"
     inkscape:showpageshadow="2"
     inkscape:pageopacity="0.0"
     inkscape:pagecheckerboard="0"
     inkscape:deskcolor="#d1d1d1"
     showguides="true"
     inkscape:zoom="3.8684211"
     inkscape:cx="100.17007"
     inkscape:cy="94.999999"
     inkscape:window-width="1920"
     inkscape:window-height="974"
     inkscape:window-x="-11"
     inkscape:window-y="-11"
     inkscape:window-maximized="1"
     inkscape:current-layer="Capa_1" />
  <defs
     id="defs1">
    <style
       id="style1">.cls-1{fill:#3376ba;}.cls-2{fill:#1d8c5e;}.cls-3{fill:#fff;}</style>
  </defs>
  <title
     id="title1">index 4 imágenes con frase</title>
  <path
     class="cls-1"
     d="m 66.139239,23.841597 c 3.095898,0 4.606353,2.493901 4.606353,5.146136 0,2.652244 -1.510455,5.117871 -4.606353,5.117871 -3.0959,0 -4.606356,-2.471279 -4.606356,-5.117871 0,-2.646583 1.510456,-5.146136 4.606356,-5.146136 m 0,14.024648 c 5.779367,0 9.726906,-3.18948 9.726906,-8.901127 0,-5.711654 -3.947539,-8.878502 -9.726906,-8.878502 -5.77937,0 -9.721552,3.189471 -9.721552,8.878502 0,5.689025 3.947538,8.912429 9.721552,8.912429 z"
     id="path1"
     style="stroke-width:0.550363" />
  <path
     class="cls-1"
     d="m 78.056842,33.031133 a 10.064349,10.625928 0 0 0 4.242131,1.131011 c 0.824859,0 2.265684,-0.130059 2.265684,-1.34025 0,-2.188528 -6.191798,-3.958569 -6.191798,-8.312993 0,-2.001912 1.489031,-4.450559 5.972193,-4.450559 a 22.576494,23.836236 0 0 1 4.311762,0.486329 l 0.535622,4.066024 a 8.8431296,9.3365665 0 0 0 -3.556534,-0.870883 c -0.776653,0 -2.142491,0.333638 -2.142491,1.232813 0,2.522166 6.191798,3.704083 6.191798,8.182924 0,2.312937 -1.655075,4.682422 -6.191798,4.682422 a 27.032874,28.541278 0 0 1 -4.874166,-0.565519 l -0.535622,-4.246979"
     id="path2"
     style="stroke-width:0.550363" />
  <path
     class="cls-1"
     d="m 92.925725,20.397641 h 5.849001 c 2.828084,0 4.317124,1.617357 4.317124,3.958569 0,3.754988 -2.60849,5.247939 -5.5812,5.247939 A 9.9732938,10.529791 0 0 1 95.582416,29.372286 L 95.143205,28.19037 a 13.685158,14.448774 0 0 0 2.051426,0.180956 c 2.951289,0 4.311769,-1.515555 4.311769,-3.958569 0,-2.442995 -2.340675,-2.776651 -2.828087,-2.776651 H 94.505811 V 37.560863 H 92.898945 V 20.397641"
     id="path3"
     style="stroke-width:0.550363" />
  <path
     class="cls-1"
     d="m 106.9644,31.656948 c 0,3.059403 1.60687,4.942549 5.19018,4.942549 3.58332,0 5.19019,-1.877486 5.19019,-4.942549 V 20.397641 h 1.60687 v 11.875705 c 0,1.232814 -0.43922,5.581579 -6.77563,5.581579 -6.33642,0 -6.77563,-4.348765 -6.77563,-5.581579 V 20.397641 h 1.60687 v 11.259307"
     id="path4"
     style="stroke-width:0.550363" />
  <path
     class="cls-1"
     d="m 125.33626,28.580566 3.02626,-6.94446 h 0.0482 l 2.63525,6.94446 h -5.70973 m -5.48477,8.980297 h 1.75149 l 3.26729,-7.741833 h 6.55601 l 2.82809,7.741833 h 1.70329 l -6.42747,-17.163222 h -2.07286 z"
     id="path5"
     style="stroke-width:0.550363" />
  <polyline
     class="cls-1"
     points="160.86 171.65 150.67 155.09 153.98 155.09 162.58 169.47 171.28 155.09 174.55 155.09 163.81 172.01 163.81 185.44 160.86 185.44 160.86 171.65"
     id="polyline5"
     transform="matrix(0.53562263,0,0,0.56550976,54.168071,-67.307263)" />
  <polyline
     class="cls-1"
     points="194.94 168.87 194.94 171.06 180.78 171.06 180.78 183.25 196.25 183.25 196.25 185.44 177.83 185.44 177.83 155.09 196.25 155.09 196.25 157.27 180.78 157.27 180.78 168.87 194.94 168.87"
     id="polyline6"
     transform="matrix(0.53562263,0,0,0.56550976,54.168071,-67.307263)" />
  <path
     class="cls-2"
     d="M 27.912248,56.258252 A 26.868147,27.490892 0 1 0 1.0401169,28.771435 26.868147,27.490892 0 0 0 27.912248,56.258252"
     id="path6"
     style="stroke-width:0.403171" />
  <polyline
     class="cls-3"
     points="48.67 34.14 48.67 39.23 68.52 39.23 68.52 19.01 63.41 19.01 63.41 34.14 48.67 34.14"
     id="polyline7"
     transform="matrix(0.39857805,0,0,0.40781624,-12.938015,-0.40373887)" />
  <polyline
     class="cls-3"
     points="52.45 41.88 71.54 41.88 71.54 22.23 77.21 22.23 77.21 47.36 52.45 47.36 52.45 41.88"
     id="polyline8"
     transform="matrix(0.39857805,0,0,0.40781624,-12.938015,-0.40373887)" />
  <polyline
     class="cls-3"
     points="80.24 25.63 80.24 50.2 56.23 50.2 56.23 55.29 85.34 55.29 85.34 25.63 80.24 25.63"
     id="polyline9"
     transform="matrix(0.39857805,0,0,0.40781624,-12.938015,-0.40373887)" />
  <polyline
     class="cls-3"
     points="59.07 57.95 59.07 63.25 93.27 63.25 93.27 28.84 87.99 28.84 87.99 57.95 59.07 57.95"
     id="polyline10"
     transform="matrix(0.39857805,0,0,0.40781624,-12.938015,-0.40373887)" />
  <polyline
     class="cls-3"
     points="64.44 125.22 69.52 125.22 69.52 105.39 49.31 105.39 49.31 110.49 64.44 110.49 64.44 125.22"
     id="polyline11"
     transform="matrix(0.39857805,0,0,0.40781624,-12.938015,-0.40373887)" />
  <polyline
     class="cls-3"
     points="72.18 121.46 72.18 102.36 52.52 102.36 52.52 96.69 77.65 96.69 77.65 121.46 72.18 121.46"
     id="polyline12"
     transform="matrix(0.39857805,0,0,0.40781624,-12.938015,-0.40373887)" />
  <polyline
     class="cls-3"
     points="55.92 93.67 80.5 93.67 80.5 117.67 85.6 117.67 85.6 88.57 55.92 88.57 55.92 93.67"
     id="polyline13"
     transform="matrix(0.39857805,0,0,0.40781624,-12.938015,-0.40373887)" />
  <polyline
     class="cls-3"
     points="88.24 114.83 93.54 114.83 93.54 80.62 59.14 80.62 59.14 85.92 88.24 85.92 88.24 114.83"
     id="polyline14"
     transform="matrix(0.39857805,0,0,0.40781624,-12.938015,-0.40373887)" />
  <polyline
     class="cls-3"
     points="156.78 109.64 156.78 104.52 136.94 104.52 136.94 124.75 142.05 124.75 142.05 109.64 156.78 109.64"
     id="polyline15"
     transform="matrix(0.39857805,0,0,0.40781624,-13.221181,-0.84531187)" />
  <polyline
     class="cls-3"
     points="153.01 101.89 133.91 101.89 133.91 121.53 128.24 121.53 128.24 96.4 153.01 96.4 153.01 101.89"
     id="polyline16"
     transform="matrix(0.35690021,-0.0087849,0.00650348,0.40980485,-8.2137695,0.21929813)" />
  <polyline
     class="cls-3"
     points="125.23 118.14 125.23 93.56 149.23 93.56 149.23 88.45 120.12 88.45 120.12 118.14 125.23 118.14"
     id="polyline17"
     transform="matrix(0.39857805,0,0,0.40781624,-12.938015,-0.40373887)" />
  <polyline
     class="cls-3"
     points="146.38 85.82 146.38 80.53 112.18 80.53 112.18 114.91 117.46 114.91 117.46 85.82 146.38 85.82"
     id="polyline18"
     transform="matrix(0.39857805,0,0,0.40781624,-12.938015,-0.40373887)" />
  <polyline
     class="cls-3"
     points="141.79 18.53 136.67 18.53 136.67 38.37 156.9 38.37 156.9 33.28 141.79 33.28 141.79 18.53"
     id="polyline19"
     transform="matrix(0.39857805,0,0,0.40781624,-12.938015,-0.40373887)" />
  <polyline
     class="cls-3"
     points="134.02 22.31 134.02 41.41 153.69 41.41 153.69 47.06 128.56 47.06 128.56 22.31 134.02 22.31"
     id="polyline20"
     transform="matrix(0.39857805,0,0,0.40781624,-12.938015,-0.40373887)" />
  <polyline
     class="cls-3"
     points="150.3 50.09 125.72 50.09 125.72 26.09 120.61 26.09 120.61 55.19 150.3 55.19 150.3 50.09"
     id="polyline21"
     transform="matrix(0.39857805,0,0,0.40781624,-12.938015,-0.40373887)" />
  <polyline
     class="cls-3"
     points="117.97 28.93 112.68 28.93 112.68 63.13 147.08 63.13 147.08 57.85 117.97 57.85 117.97 28.93"
     id="polyline22"
     transform="matrix(0.39857805,0,0,0.40781624,-12.938015,-0.40373887)"
     inkscape:label="polyline22" />
  <metadata
     id="metadata22">
    <rdf:RDF>
      <cc:Work
         rdf:about="">
        <dc:title>index 4 imágenes con frase</dc:title>
      </cc:Work>
    </rdf:RDF>
  </metadata>
</svg>
